<?xml version="1.0" encoding="UTF-8" standalone="no"?>
<svg
   xmlns:dc="http://purl.org/dc/elements/1.1/"
   xmlns:cc="http://creativecommons.org/ns#"
   xmlns:rdf="http://www.w3.org/1999/02/22-rdf-syntax-ns#"
   xmlns:svg="http://www.w3.org/2000/svg"
   xmlns="http://www.w3.org/2000/svg"
   xmlns:sodipodi="http://sodipodi.sourceforge.net/DTD/sodipodi-0.dtd"
   xmlns:inkscape="http://www.inkscape.org/namespaces/inkscape"
   inkscape:version="1.0 (4035a4fb49, 2020-05-01)"
   sodipodi:docname="logo.svg"
   xml:space="preserve"
   enable-background="new 0 0 245.115 308.395"
   viewBox="0 0 245.115 251.72901"
   height="251.729"
   width="245.11501"
   y="0px"
   x="0px"
   id="Layer_1"
   version="1.1"><metadata
   id="metadata33"><rdf:RDF><cc:Work
       rdf:about=""><dc:format>image/svg+xml</dc:format><dc:type
         rdf:resource="http://purl.org/dc/dcmitype/StillImage" /><dc:title /></cc:Work></rdf:RDF></metadata><defs
   id="defs31" /><sodipodi:namedview
   inkscape:current-layer="g20"
   inkscape:window-maximized="1"
   inkscape:window-y="1432"
   inkscape:window-x="334"
   inkscape:cy="154.19749"
   inkscape:cx="122.5575"
   inkscape:zoom="2.3833072"
   showborder="true"
   showgrid="false"
   id="namedview29"
   inkscape:window-height="1017"
   inkscape:window-width="1920"
   inkscape:pageshadow="2"
   inkscape:pageopacity="0"
   guidetolerance="10"
   gridtolerance="10"
   objecttolerance="10"
   borderopacity="1"
   bordercolor="#666666"
   pagecolor="#ffffff"
   inkscape:document-rotation="0"
   fit-margin-top="0"
   fit-margin-left="0"
   fit-margin-right="0"
   fit-margin-bottom="0" />

<g
   id="g20">
	
	
	<path
   id="path18"
   d="M 0,251.729 H 245.115 V 0 Z m 201.336,-18.052 h -6.263 v 10.068 h -5.524 v -10.068 h -24.192 l 29.717,-39.419 v 38.067 h 6.263 v 1.352 z m 19.669,10.436 c -9.16,-0.536 -16.6,-5.354 -16.6,-23.576 0,-28.898 19.362,-31.518 28.206,-21.859 2.267,2.478 3.191,4.831 3.548,7.669 0.038,0.303 -1.179,0.332 -1.269,0.037 -3.713,-12.126 -14.833,-12.861 -20.699,-6.559 -4.031,4.328 -4.317,14.431 -4.339,16.21 -0.001,0.174 0.152,0.22 0.229,0.108 0.962,-1.378 4.66,-5.211 12.786,-4.856 7.531,0.327 14.736,6.352 14.736,17.354 0.002,8.784 -8.228,15.963 -16.598,15.472 z"
   fill="#7d2982" />
<rect
   y="185.45657"
   x="162.79898"
   height="62.937752"
   width="79.721153"
   id="rect836"
   style="fill:#7d2982;stroke:none;stroke-width:4.7811;fill-opacity:1" /></g>

</svg>
