<!--?xml version="1.0" encoding="UTF-8" standalone="no"?-->
<svg xmlns:dc="http://purl.org/dc/elements/1.1/" xmlns:cc="http://creativecommons.org/ns#" xmlns:rdf="http://www.w3.org/1999/02/22-rdf-syntax-ns#" xmlns:svg="http://www.w3.org/2000/svg" xmlns="http://www.w3.org/2000/svg" xmlns:sodipodi="http://sodipodi.sourceforge.net/DTD/sodipodi-0.dtd" xmlns:inkscape="http://www.inkscape.org/namespaces/inkscape" width="177.19617mm" height="177.19617mm" viewBox="0 0 177.19617 177.19617" version="1.1" id="svg8" sodipodi:docname="drawing.svg" inkscape:version="1.0 (4035a4fb49, 2020-05-01)" style="">
  <defs id="defs2">
    <path width="143.25298" height="59.720238" id="rect862" d="M45.735119 229.05357 L188.988099 229.05357 L188.988099 288.77380800000003 L45.735119 288.77380800000003 Z" class="ClMbEbvp_0"></path>
  </defs>
  <sodipodi:namedview id="base" pagecolor="#ffffff" bordercolor="#666666" borderopacity="1.0" inkscape:pageopacity="0.0" inkscape:pageshadow="2" inkscape:zoom="0.49497475" inkscape:cx="-130.19432" inkscape:cy="273.54072" inkscape:document-units="mm" inkscape:current-layer="layer1" inkscape:document-rotation="0" showgrid="false" inkscape:snap-midpoints="false" inkscape:window-width="2560" inkscape:window-height="1377" inkscape:window-x="-8" inkscape:window-y="-8" inkscape:window-maximized="1"></sodipodi:namedview>
  <metadata id="metadata5">
    <rdf:rdf>
      <cc:work rdf:about="">
        <dc:format>image/svg+xml</dc:format>
        <dc:type rdf:resource="http://purl.org/dc/dcmitype/StillImage"></dc:type>
      </cc:work>
    </rdf:rdf>
  </metadata>
  <g transform="translate(-29.48111,-49.639496)" inkscape:label="Layer 1" inkscape:groupmode="layer" id="layer1">
    <g transform="matrix(0.85538613,0,0,0.85538613,75.322259,95.454097)" id="g40" style="fill:#7e2582;fill-opacity:1;stroke-width:9.44805;stroke-miterlimit:4;stroke-dasharray:none">
      <path inkscape:connector-curvature="0" d="m 21.46,94.64 c 8.25,-0.88 14.39,-9.26 13.32,-17.54 0,-14.57 0,-29.16 0,-43.72 0.56,-0.65 1.71,0.73 2.3,0.8 6.64,4 12.51,10.47 12.91,18.59 0.44,6.34 -1.47,12.55 -3.62,18.43 7.19,-8.91 9.5,-21.91 4.5,-32.44 -2.56,-6.11 -8.32,-9.88 -11.55,-15.55 a 31.12,31.12 0 0 1 -4.76,-12.5 c -0.47,-0.93 -1.63,-1 -2.54,-1 H 32 c -2.87,0 -2.48,1.91 -2.48,3.85 v 55.21 c 0,0 -1.49,-0.14 -2.59,-0.14 C 18.52,68.08 9.39,74.18 8.55,83 7.57,90 14.91,95.73 21.46,94.64 Z" id="path4" style="fill: rgb(126, 37, 130); fill-opacity: 1; stroke-width: 9.44805; stroke-miterlimit: 4;" class="ClMbEbvp_1"></path>
      <path inkscape:connector-curvature="0" d="m 74.45,8 v 39.19 c 0,0 -1.06,-0.1 -1.84,-0.1 -5.93,-0.36 -12.41,4 -13,10.21 -0.7,5 4.51,9.05 9.16,8.28 C 74.6,64.91 79,59 78.2,53.09 c 0,-10.34 0,-20.69 0,-31 0.4,-0.46 1.21,0.52 1.63,0.57 4.71,2.8 8.88,7.43 9.16,13.19 0.31,4.5 -1,8.91 -2.57,13.08 5.11,-6.32 6.74,-15.55 3.19,-23 -1.81,-4.34 -5.91,-7 -8.2,-11 A 22.09,22.09 0 0 1 78.06,6 C 77.73,5.34 76.9,5.26 76.25,5.26 v 0 C 74.18,5.23 74.45,6.58 74.45,8 Z" id="path6" style="fill: rgb(126, 37, 130); fill-opacity: 1; stroke-width: 9.44805; stroke-miterlimit: 4;" class="ClMbEbvp_2"></path>
    </g>
    <path transform="matrix(-0.82649853,0.56293888,0.56293888,0.82649853,0,0)" id="path909" style="fill: none; stroke: rgb(126, 37, 130); stroke-width: 10; stroke-miterlimit: 4; stroke-opacity: 0.737255;" d="M-84.420254,180.72452A64.647263,64.647263 0,1,1 44.87427199999999,180.72452A64.647263,64.647263 0,1,1 -84.420254,180.72452" class="ClMbEbvp_3"></path>
    <path transform="rotate(-34.25929)" style="fill: none; stroke: rgb(126, 37, 130); stroke-width: 10; stroke-miterlimit: 4; stroke-opacity: 1;" id="path909-6" d="M-63.825119,180.72452A83.598083,83.598083 0,1,1 103.371047,180.72452A83.598083,83.598083 0,1,1 -63.825119,180.72452" class="ClMbEbvp_4"></path>
  </g>
<style data-made-with="vivus-instant">.ClMbEbvp_0{stroke-dasharray:406 408;stroke-dashoffset:407;animation:ClMbEbvp_draw 2000ms ease-in-out 0ms forwards;}.ClMbEbvp_1{stroke-dasharray:293 295;stroke-dashoffset:294;animation:ClMbEbvp_draw 2000ms ease-in-out 0ms forwards;}.ClMbEbvp_2{stroke-dasharray:208 210;stroke-dashoffset:209;animation:ClMbEbvp_draw 2000ms ease-in-out 0ms forwards;}.ClMbEbvp_3{stroke-dasharray:407 409;stroke-dashoffset:408;animation:ClMbEbvp_draw 2000ms ease-in-out 0ms forwards;}.ClMbEbvp_4{stroke-dasharray:526 528;stroke-dashoffset:527;animation:ClMbEbvp_draw 2000ms ease-in-out 0ms forwards;}@keyframes ClMbEbvp_draw{100%{stroke-dashoffset:0;}}@keyframes ClMbEbvp_fade{0%{stroke-opacity:1;}93.54838709677419%{stroke-opacity:1;}100%{stroke-opacity:0;}}</style></svg>
