<!--?xml version="1.0" encoding="UTF-8" standalone="no"?-->
<svg xmlns:dc="http://purl.org/dc/elements/1.1/" xmlns:cc="http://creativecommons.org/ns#" xmlns:rdf="http://www.w3.org/1999/02/22-rdf-syntax-ns#" xmlns:svg="http://www.w3.org/2000/svg" xmlns="http://www.w3.org/2000/svg" xmlns:sodipodi="http://sodipodi.sourceforge.net/DTD/sodipodi-0.dtd" xmlns:inkscape="http://www.inkscape.org/namespaces/inkscape" width="109.167mm" height="111.84246mm" viewBox="0 0 109.167 111.84246" version="1.1" id="svg8" sodipodi:docname="drawing.svg" inkscape:version="1.0 (4035a4fb49, 2020-05-01)" style="">
  <defs id="defs2">
    <path width="143.25298" height="59.720238" id="rect862" d="M45.735119 229.05357 L188.988099 229.05357 L188.988099 288.77380800000003 L45.735119 288.77380800000003 Z" class="UXdjXddf_0"></path>
  </defs>
  <sodipodi:namedview id="base" pagecolor="#ffffff" bordercolor="#666666" borderopacity="1.0" inkscape:pageopacity="0.0" inkscape:pageshadow="2" inkscape:zoom="15.839192" inkscape:cx="351.56638" inkscape:cy="401.86989" inkscape:document-units="mm" inkscape:current-layer="layer1" inkscape:document-rotation="0" showgrid="false" inkscape:snap-midpoints="false" inkscape:window-width="2560" inkscape:window-height="1377" inkscape:window-x="-8" inkscape:window-y="-8" inkscape:window-maximized="1"></sodipodi:namedview>
  <metadata id="metadata5">
    <rdf:rdf>
      <cc:work rdf:about="">
        <dc:format>image/svg+xml</dc:format>
        <dc:type rdf:resource="http://purl.org/dc/dcmitype/StillImage"></dc:type>
      </cc:work>
    </rdf:rdf>
  </metadata>
  <g transform="translate(-65.159809,-90.663612)" inkscape:label="Layer 1" inkscape:groupmode="layer" id="layer1">
    <g transform="matrix(1.0584192,0,0,1.0584192,66.837658,85.096847)" id="g40" style="fill:#7e2582;fill-opacity:1">
      <path inkscape:connector-curvature="0" d="m 21.46,94.64 c 8.25,-0.88 14.39,-9.26 13.32,-17.54 0,-14.57 0,-29.16 0,-43.72 0.56,-0.65 1.71,0.73 2.3,0.8 6.64,4 12.51,10.47 12.91,18.59 0.44,6.34 -1.47,12.55 -3.62,18.43 7.19,-8.91 9.5,-21.91 4.5,-32.44 -2.56,-6.11 -8.32,-9.88 -11.55,-15.55 a 31.12,31.12 0 0 1 -4.76,-12.5 c -0.47,-0.93 -1.63,-1 -2.54,-1 H 32 c -2.87,0 -2.48,1.91 -2.48,3.85 v 55.21 c 0,0 -1.49,-0.14 -2.59,-0.14 C 18.52,68.08 9.39,74.18 8.55,83 7.57,90 14.91,95.73 21.46,94.64 Z" id="path4" style="fill:#7e2582;fill-opacity:1" class="UXdjXddf_1"></path>
      <path inkscape:connector-curvature="0" d="m 74.45,8 v 39.19 c 0,0 -1.06,-0.1 -1.84,-0.1 -5.93,-0.36 -12.41,4 -13,10.21 -0.7,5 4.51,9.05 9.16,8.28 C 74.6,64.91 79,59 78.2,53.09 c 0,-10.34 0,-20.69 0,-31 0.4,-0.46 1.21,0.52 1.63,0.57 4.71,2.8 8.88,7.43 9.16,13.19 0.31,4.5 -1,8.91 -2.57,13.08 5.11,-6.32 6.74,-15.55 3.19,-23 -1.81,-4.34 -5.91,-7 -8.2,-11 A 22.09,22.09 0 0 1 78.06,6 C 77.73,5.34 76.9,5.26 76.25,5.26 v 0 C 74.18,5.23 74.45,6.58 74.45,8 Z" id="path6" style="fill:#7e2582;fill-opacity:1" class="UXdjXddf_2"></path>
    </g>
    <text xml:space="preserve" id="text860" style="font-style:normal;font-variant:normal;font-weight:normal;font-stretch:normal;font-size:17.6389px;line-height:1.25;font-family:Arial;-inkscape-font-specification:Arial;white-space:pre;shape-inside:url(#rect862);opacity:1;fill:none;fill-opacity:1;stroke:#7e2582;stroke-width:0.5;stroke-miterlimit:4;stroke-dasharray:none;stroke-opacity:1;" transform="translate(18.331846,-42.900296)"><tspan x="45.734375" y="244.94105"><tspan style="font-style:normal;font-variant:normal;font-weight:normal;font-stretch:normal;font-size:17.6389px;font-family:Arial;-inkscape-font-specification:Arial;stroke:#7e2582;stroke-width:0.5;stroke-miterlimit:4;stroke-dasharray:none;stroke-opacity:1">NOGIZAKA46</tspan></tspan></text>
    <path sodipodi:nodetypes="cccccc" id="path863" d="m 66.246491,201.93035 -0.188994,-11.52827 0.850447,0 6.992559,10.91406 h 0.755953 l -0.0945,-11.71726" style="fill: none; stroke: rgb(126, 37, 130); stroke-width: 1.665; stroke-linecap: butt; stroke-linejoin: miter; stroke-miterlimit: 4; stroke-opacity: 1;" class="UXdjXddf_3"></path>
    <path sodipodi:nodetypes="cssssc" id="path865" d="m 83.86963,189.97685 c 0,0 -4.677455,-0.42522 -5.244419,4.72471 -0.566965,5.14992 2.740327,6.18936 3.16555,6.37835 0.425223,0.18898 4.068484,0.99264 5.905878,-1.46467 1.750061,-2.3405 1.327478,-5.5237 0.614211,-6.61458 -0.803199,-1.22842 -0.992187,-2.64583 -4.44122,-3.02381 z" style="fill: none; stroke: rgb(126, 37, 130); stroke-width: 1.465; stroke-linecap: butt; stroke-linejoin: miter; stroke-miterlimit: 4; stroke-opacity: 1;" class="UXdjXddf_4"></path>
    <path sodipodi:nodetypes="csssccc" id="path867" d="m 102.34322,193.09516 c 0,0 -1.08669,-3.44904 -4.771953,-3.35454 -3.685268,0.0945 -5.197173,3.82701 -5.244418,5.29167 -0.01703,0.52796 -0.09449,5.5279 3.685265,6.3311 3.779764,0.8032 6.283856,-1.32292 6.283856,-1.32292 l 0.0473,-3.73252 h -4.346731" style="fill: none; stroke: rgb(126, 37, 130); stroke-width: 1.465; stroke-linecap: butt; stroke-linejoin: miter; stroke-miterlimit: 4; stroke-opacity: 1;" class="UXdjXddf_5"></path>
    <path id="path869" d="m 106.78444,189.50438 -0.0945,12.56771" style="fill: none; stroke: rgb(126, 37, 130); stroke-width: 1.365; stroke-linecap: butt; stroke-linejoin: miter; stroke-opacity: 1; stroke-miterlimit: 4;" class="UXdjXddf_6"></path>
    <path id="path871" d="m 110.37521,190.1186 h 8.26823 l -0.0472,0.56696 -8.22098,9.96912 -0.14174,0.61421 9.26041,0.14174" style="fill: none; stroke: rgb(126, 37, 130); stroke-width: 1.465; stroke-linecap: butt; stroke-linejoin: miter; stroke-opacity: 1; stroke-miterlimit: 4;" class="UXdjXddf_7"></path>
    <path sodipodi:nodetypes="ccccc" id="path873" d="m 120.63592,201.95803 4.52761,-11.98118 0.94494,0.0472 4.30289,10.93609 0.2605,1.06228" style="fill: none; stroke: rgb(126, 37, 130); stroke-width: 1.565; stroke-linecap: butt; stroke-linejoin: miter; stroke-miterlimit: 4; stroke-opacity: 1;" class="UXdjXddf_8"></path>
    <path id="path877" d="m 122.37219,197.52131 h 6.49799" style="fill: none; stroke: rgb(126, 37, 130); stroke-width: 1.365; stroke-linecap: butt; stroke-linejoin: miter; stroke-opacity: 1; stroke-miterlimit: 4;" class="UXdjXddf_9"></path>
    <path sodipodi:nodetypes="cccccc" id="path885" d="m 144.43863,201.96466 v -0.45101 l 4.29302,-11.5093 0.66817,0.0167 4.84426,11.60952 -0.0668,0.4009" style="fill: none; stroke: rgb(126, 37, 130); stroke-width: 1.665; stroke-linecap: butt; stroke-linejoin: miter; stroke-miterlimit: 4; stroke-opacity: 1;" class="UXdjXddf_10"></path>
    <path id="path887" d="m 146.07566,197.60483 6.51469,-0.0835" style="fill: none; stroke: rgb(126, 37, 130); stroke-width: 1.565; stroke-linecap: butt; stroke-linejoin: miter; stroke-opacity: 1; stroke-miterlimit: 4;" class="UXdjXddf_11"></path>
    <path sodipodi:nodetypes="cccccc" id="path889" d="m 161.74433,201.98137 0.0167,-11.75986 -0.26727,0.0501 -5.31199,7.63389 -0.0167,0.46772 7.88445,-0.0334" style="fill: none; stroke: rgb(126, 37, 130); stroke-width: 1.765; stroke-linecap: butt; stroke-linejoin: miter; stroke-miterlimit: 4; stroke-opacity: 1;" class="UXdjXddf_12"></path>
    <path sodipodi:nodetypes="cssssssc" id="path891" d="m 173.35386,192.4933 c -0.68488,-1.23612 -1.04206,-2.53983 -3.0402,-2.60588 -2.02122,-0.0668 -3.29075,2.40543 -3.39098,2.72281 -0.10023,0.31738 -0.92443,6.80474 0.91874,8.13502 1.921,1.38645 4.04549,0.92616 4.87767,-0.28398 0.8827,-1.2836 0.92757,-4.49419 -0.95215,-5.3955 -0.86695,-0.4157 -1.62628,-0.95822 -2.99008,-0.23386 -1.91568,1.01747 -2.27179,3.32416 -2.27179,3.32416" style="fill: none; stroke: rgb(126, 37, 130); stroke-width: 1.565; stroke-linecap: butt; stroke-linejoin: miter; stroke-miterlimit: 4; stroke-opacity: 1;" class="UXdjXddf_13"></path>
    <path sodipodi:nodetypes="ccccccc" id="path893" d="m 133.83137,189.403 -0.0501,12.52826 0.0334,-4.71063 c 2.05816,-1.38237 6.5517,-6.9676 7.61766,-6.98303 l -4.59417,4.27695 5.01176,6.91021 -0.81901,-0.028" style="fill: none; stroke: rgb(126, 37, 130); stroke-width: 1.465; stroke-linecap: butt; stroke-linejoin: miter; stroke-miterlimit: 4; stroke-opacity: 1;" class="UXdjXddf_14"></path>
  </g>
<style data-made-with="vivus-instant">.UXdjXddf_0{stroke-dasharray:406 408;stroke-dashoffset:407;animation:UXdjXddf_draw 2000ms linear 0ms forwards;}.UXdjXddf_1{stroke-dasharray:293 295;stroke-dashoffset:294;animation:UXdjXddf_draw 2000ms linear 71ms forwards;}.UXdjXddf_2{stroke-dasharray:208 210;stroke-dashoffset:209;animation:UXdjXddf_draw 2000ms linear 142ms forwards;}.UXdjXddf_3{stroke-dasharray:38 40;stroke-dashoffset:39;animation:UXdjXddf_draw 2000ms linear 214ms forwards;}.UXdjXddf_4{stroke-dasharray:35 37;stroke-dashoffset:36;animation:UXdjXddf_draw 2000ms linear 285ms forwards;}.UXdjXddf_5{stroke-dasharray:38 40;stroke-dashoffset:39;animation:UXdjXddf_draw 2000ms linear 357ms forwards;}.UXdjXddf_6{stroke-dasharray:13 15;stroke-dashoffset:14;animation:UXdjXddf_draw 2000ms linear 428ms forwards;}.UXdjXddf_7{stroke-dasharray:32 34;stroke-dashoffset:33;animation:UXdjXddf_draw 2000ms linear 500ms forwards;}.UXdjXddf_8{stroke-dasharray:27 29;stroke-dashoffset:28;animation:UXdjXddf_draw 2000ms linear 571ms forwards;}.UXdjXddf_9{stroke-dasharray:7 9;stroke-dashoffset:8;animation:UXdjXddf_draw 2000ms linear 642ms forwards;}.UXdjXddf_10{stroke-dasharray:27 29;stroke-dashoffset:28;animation:UXdjXddf_draw 2000ms linear 714ms forwards;}.UXdjXddf_11{stroke-dasharray:7 9;stroke-dashoffset:8;animation:UXdjXddf_draw 2000ms linear 785ms forwards;}.UXdjXddf_12{stroke-dasharray:30 32;stroke-dashoffset:31;animation:UXdjXddf_draw 2000ms linear 857ms forwards;}.UXdjXddf_13{stroke-dasharray:37 39;stroke-dashoffset:38;animation:UXdjXddf_draw 2000ms linear 928ms forwards;}.UXdjXddf_14{stroke-dasharray:44 46;stroke-dashoffset:45;animation:UXdjXddf_draw 2000ms linear 1000ms forwards;}@keyframes UXdjXddf_draw{100%{stroke-dashoffset:0;}}@keyframes UXdjXddf_fade{0%{stroke-opacity:1;}94.44444444444444%{stroke-opacity:1;}100%{stroke-opacity:0;}}</style></svg>
