<!--?xml version="1.0" encoding="UTF-8" standalone="no"?-->
<svg xmlns:dc="http://purl.org/dc/elements/1.1/" xmlns:cc="http://creativecommons.org/ns#" xmlns:rdf="http://www.w3.org/1999/02/22-rdf-syntax-ns#" xmlns:svg="http://www.w3.org/2000/svg" xmlns="http://www.w3.org/2000/svg" xmlns:sodipodi="http://sodipodi.sourceforge.net/DTD/sodipodi-0.dtd" xmlns:inkscape="http://www.inkscape.org/namespaces/inkscape" sodipodi:docname="drawing.svg" inkscape:version="1.0 (4035a4fb49, 2020-05-01)" id="svg8" version="1.1" viewBox="0 0 87.045975 87.025002" height="87.025002mm" width="87.045975mm" style="">
  <defs id="defs2"></defs>
  <sodipodi:namedview inkscape:window-maximized="1" inkscape:window-y="1432" inkscape:window-x="334" inkscape:window-height="1017" inkscape:window-width="1920" fit-margin-bottom="0" fit-margin-right="0" fit-margin-left="0" fit-margin-top="0" inkscape:guide-bbox="true" showguides="true" inkscape:snap-object-midpoints="false" showgrid="false" inkscape:document-rotation="0" inkscape:current-layer="g857" inkscape:document-units="mm" inkscape:cy="274.77927" inkscape:cx="238.57482" inkscape:zoom="1.5759161" inkscape:pageshadow="2" inkscape:pageopacity="0.0" borderopacity="1.0" bordercolor="#666666" pagecolor="#ffffff" id="base"></sodipodi:namedview>
  <metadata id="metadata5">
    <rdf:rdf>
      <cc:work rdf:about="">
        <dc:format>image/svg+xml</dc:format>
        <dc:type rdf:resource="http://purl.org/dc/dcmitype/StillImage"></dc:type>
        <dc:title></dc:title>
      </cc:work>
    </rdf:rdf>
  </metadata>
  <g transform="translate(-58.54345,-23.979116)" id="layer1" inkscape:groupmode="layer" inkscape:label="Layer 1">
    <g transform="matrix(0.26458333,0,0,0.26458333,69.432861,33.994008)" id="g893">
      <g transform="translate(138.89045,27.613916)" id="g857">
	
	
	
<path id="path903" d="m -169.068,261.75698 h 304.58474 c 0,0 11.42193,0.31728 11.73921,-10.15282 0,-10.15283 0,-307.12295 0,-307.12295 0,0 -1.58638,-8.566446 -10.78738,-8.249171 -9.201,0.317276 -307.44022,0.634552 -307.44022,0.634552 0,0 -6.98007,1.269103 -7.29734,9.835549 -0.31728,8.56645 0.31727,306.80567 0.31727,306.80567 0,0 0.31728,7.93189 8.88372,8.24917 z" style="fill: none; fill-opacity: 1; stroke: rgb(125, 41, 130); stroke-width: 5.64661; stroke-linecap: butt; stroke-linejoin: miter; stroke-miterlimit: 4; stroke-opacity: 1;" class="YLEXsPrE_0"></path>
</g>
      <g id="g865">
	<path fill="#7d2982" id="ellipse859" d="M209.851,227.694A11.216,14.862 0,1,1 232.28300000000002,227.694A11.216,14.862 0,1,1 209.851,227.694" class="YLEXsPrE_1"></path>

	<path fill="#7d2982" id="polygon861" d="M168.917,232.325L189.549,232.325L189.549,205.063Z" class="YLEXsPrE_2"></path>

	<path fill="#7d2982" d="M 0,251.729 H 245.115 V 0 Z m 201.336,-18.052 h -6.263 v 10.068 h -5.524 v -10.068 h -24.192 l 29.717,-39.419 v 38.067 h 6.263 v 1.352 z m 19.669,10.436 c -9.16,-0.536 -16.6,-5.354 -16.6,-23.576 0,-28.898 19.362,-31.518 28.206,-21.859 2.267,2.478 3.191,4.831 3.548,7.669 0.038,0.303 -1.179,0.332 -1.269,0.037 -3.713,-12.126 -14.833,-12.861 -20.699,-6.559 -4.031,4.328 -4.317,14.431 -4.339,16.21 -0.001,0.174 0.152,0.22 0.229,0.108 0.962,-1.378 4.66,-5.211 12.786,-4.856 7.531,0.327 14.736,6.352 14.736,17.354 0.002,8.784 -8.228,15.963 -16.598,15.472 z" id="path863" class="YLEXsPrE_3"></path>

</g>
      <g id="g871">
	<path fill="#ffffff" d="m 195.084,194.258 -29.717,39.419 h 24.192 v 10.068 h 5.524 v -10.068 h 6.263 v -1.352 h -6.263 v -38.067 z m -5.535,38.067 h -20.633 l 20.633,-27.262 z" id="path867" class="YLEXsPrE_4"></path>

	<path fill="#ffffff" d="m 222.879,211.287 c -8.126,-0.354 -11.824,3.479 -12.786,4.856 -0.077,0.111 -0.23,0.065 -0.229,-0.108 0.021,-1.779 0.308,-11.882 4.339,-16.21 5.866,-6.303 16.986,-5.567 20.699,6.559 0.09,0.295 1.307,0.266 1.269,-0.037 -0.356,-2.838 -1.281,-5.191 -3.548,-7.669 -8.844,-9.658 -28.206,-7.039 -28.206,21.859 0,18.223 7.439,23.04 16.6,23.576 8.37,0.491 16.6,-6.688 16.6,-15.473 -10e-4,-11.001 -7.206,-17.026 -14.738,-17.353 z m -1.812,31.27 c -6.193,0 -11.216,-6.652 -11.216,-14.863 0,-8.206 5.022,-14.861 11.216,-14.861 6.194,0 11.215,6.655 11.215,14.861 0,8.21 -5.021,14.863 -11.215,14.863 z" id="path869" class="YLEXsPrE_5"></path>

</g>
    </g>
  </g>
<style data-made-with="vivus-instant">.YLEXsPrE_0{stroke-dasharray:1285 1287;stroke-dashoffset:1286;animation:YLEXsPrE_draw 1666ms ease 0ms forwards;}.YLEXsPrE_1{stroke-dasharray:83 85;stroke-dashoffset:84;animation:YLEXsPrE_draw 1666ms ease 166ms forwards;}.YLEXsPrE_2{stroke-dasharray:83 85;stroke-dashoffset:84;animation:YLEXsPrE_draw 1666ms ease 333ms forwards;}.YLEXsPrE_3{stroke-dasharray:1200 1202;stroke-dashoffset:1201;animation:YLEXsPrE_draw 1666ms ease 500ms forwards;}.YLEXsPrE_4{stroke-dasharray:234 236;stroke-dashoffset:235;animation:YLEXsPrE_draw 1666ms ease 666ms forwards;}.YLEXsPrE_5{stroke-dasharray:283 285;stroke-dashoffset:284;animation:YLEXsPrE_draw 1666ms ease 833ms forwards;}@keyframes YLEXsPrE_draw{100%{stroke-dashoffset:0;}}@keyframes YLEXsPrE_fade{0%{stroke-opacity:1;}94.02985074626866%{stroke-opacity:1;}100%{stroke-opacity:0;}}</style></svg>
